{
  "accessors": [
    {
      "bufferView": 1,
      "componentType": 5126,
      "count": 65532,
      "max": [
        50.362152099609375,
        50.312591552734375,
        23.28169059753418
      ],
      "min": [
        -50.33280944824219,
        -7.217765808105469,
        -23.338979721069336
      ],
      "type": "VEC3"
    },
    {
      "bufferView": 1,
      "byteOffset": 786384,
      "componentType": 5126,
      "count": 65532,
      "max": [
        0.9999993443489075,
        0.9999947547912598,
        0.9999993443489075
      ],
      "min": [
        -0.999999463558197,
        -0.9999573230743408,
        -0.9999917149543762
      ],
      "type": "VEC3"
    },
    {
      "bufferView": 0,
      "componentType": 5125,
      "count": 334083,
      "type": "SCALAR"
    },
    {
      "bufferView": 1,
      "byteOffset": 1572768,
      "componentType": 5126,
      "count": 65532,
      "max": [
        50.010231018066406,
        50.314823150634766,
        23.412796020507813
      ],
      "min": [
        -50.36980438232422,
        -1.5094969272613525,
        -23.41599464416504
      ],
      "type": "VEC3"
    },
    {
      "bufferView": 1,
      "byteOffset": 2359152,
      "componentType": 5126,
      "count": 65532,
      "max": [
        0.9999561905860901,
        0.9999608993530273,
        0.9999991655349731
      ],
      "min": [
        -0.9999985098838806,
        -0.9999997019767761,
        -0.9999542236328125
      ],
      "type": "VEC3"
    },
    {
      "bufferView": 0,
      "byteOffset": 1336332,
      "componentType": 5125,
      "count": 346941,
      "type": "SCALAR"
    },
    {
      "bufferView": 1,
      "byteOffset": 3145536,
      "componentType": 5126,
      "count": 65532,
      "max": [
        50.34490203857422,
        49.990867614746094,
        21.436033248901367
      ],
      "min": [
        -50.36827850341797,
        -22.315204620361328,
        -23.418481826782227
      ],
      "type": "VEC3"
    },
    {
      "bufferView": 1,
      "byteOffset": 3931920,
      "componentType": 5126,
      "count": 65532,
      "max": [
        0.9999992847442627,
        0.9999628663063049,
        0.9999997019767761
      ],
      "min": [
        -0.9999994039535522,
        -0.9999997615814209,
        -0.9999991655349731
      ],
      "type": "VEC3"
    },
    {
      "bufferView": 0,
      "byteOffset": 2724096,
      "componentType": 5125,
      "count": 332544,
      "type": "SCALAR"
    },
    {
      "bufferView": 1,
      "byteOffset": 4718304,
      "componentType": 5126,
      "count": 65532,
      "max": [
        50.25975036621094,
        45.063621520996094,
        23.41872215270996
      ],
      "min": [
        -49.840797424316406,
        -49.856040954589844,
        -23.414419174194336
      ],
      "type": "VEC3"
    },
    {
      "bufferView": 1,
      "byteOffset": 5504688,
      "componentType": 5126,
      "count": 65532,
      "max": [
        0.9999801516532898,
        0.9999998211860657,
        0.9999997019767761
      ],
      "min": [
        -0.9999849796295166,
        -0.9999244809150696,
        -0.9999818801879883
      ],
      "type": "VEC3"
    },
    {
      "bufferView": 0,
      "byteOffset": 4054272,
      "componentType": 5125,
      "count": 327552,
      "type": "SCALAR"
    },
    {
      "bufferView": 1,
      "byteOffset": 6291072,
      "componentType": 5126,
      "count": 65532,
      "max": [
        33.45362854003906,
        50.24339294433594,
        23.409582138061523
      ],
      "min": [
        -50.245765686035156,
        -50.32740020751953,
        -23.36981201171875
      ],
      "type": "VEC3"
    },
    {
      "bufferView": 1,
      "byteOffset": 7077456,
      "componentType": 5126,
      "count": 65532,
      "max": [
        0.9999496936798096,
        0.9998821020126343,
        0.9999979734420776
      ],
      "min": [
        -0.9999915361404419,
        -0.9999997019767761,
        -0.9999925494194031
      ],
      "type": "VEC3"
    },
    {
      "bufferView": 0,
      "byteOffset": 5364480,
      "componentType": 5125,
      "count": 300063,
      "type": "SCALAR"
    },
    {
      "bufferView": 1,
      "byteOffset": 7863840,
      "componentType": 5126,
      "count": 43079,
      "max": [
        50.28363800048828,
        50.312591552734375,
        16.4967098236084
      ],
      "min": [
        -0.5125148296356201,
        -50.05762481689453,
        -23.40360450744629
      ],
      "type": "VEC3"
    },
    {
      "bufferView": 1,
      "byteOffset": 8380788,
      "componentType": 5126,
      "count": 43079,
      "max": [
        0.9999985098838806,
        0.999994695186615,
        0.9999579787254333
      ],
      "min": [
        -0.9999645948410034,
        -0.9999117255210876,
        -0.9999940395355225
      ],
      "type": "VEC3"
    },
    {
      "bufferView": 0,
      "byteOffset": 6564732,
      "componentType": 5125,
      "count": 162897,
      "type": "SCALAR"
    }
  ],
  "asset": {
    "extras": {
      "author": "David Peterman (https://sketchfab.com/Sphenodiscus24)",
      "license": "CC-BY-NC-4.0 (http://creativecommons.org/licenses/by-nc/4.0/)",
      "source": "https://sketchfab.com/3d-models/diatom-campylodiscus-hibernicus-790359f0200944c7b635becc25b2751c",
      "title": "Diatom - Campylodiscus Hibernicus"
    },
    "generator": "Sketchfab-14.98.0",
    "version": "2.0"
  },
  "bufferViews": [
    {
      "buffer": 0,
      "byteLength": 7216320,
      "name": "floatBufferViews",
      "target": 34963
    },
    {
      "buffer": 0,
      "byteLength": 8897736,
      "byteOffset": 7216320,
      "byteStride": 12,
      "name": "floatBufferViews",
      "target": 34962
    }
  ],
  "buffers": [
    {
      "byteLength": 16114056,
      "uri": "scene.bin"
    }
  ],
  "materials": [
    {
      "doubleSided": true,
      "name": "Scene_-_Root",
      "pbrMetallicRoughness": {
        "metallicFactor": 0.0,
        "roughnessFactor": 0.6
      }
    }
  ],
  "meshes": [
    {
      "name": "Object_0",
      "primitives": [
        {
          "attributes": {
            "NORMAL": 1,
            "POSITION": 0
          },
          "indices": 2,
          "material": 0,
          "mode": 4
        }
      ]
    },
    {
      "name": "Object_1",
      "primitives": [
        {
          "attributes": {
            "NORMAL": 4,
            "POSITION": 3
          },
          "indices": 5,
          "material": 0,
          "mode": 4
        }
      ]
    },
    {
      "name": "Object_2",
      "primitives": [
        {
          "attributes": {
            "NORMAL": 7,
            "POSITION": 6
          },
          "indices": 8,
          "material": 0,
          "mode": 4
        }
      ]
    },
    {
      "name": "Object_3",
      "primitives": [
        {
          "attributes": {
            "NORMAL": 10,
            "POSITION": 9
          },
          "indices": 11,
          "material": 0,
          "mode": 4
        }
      ]
    },
    {
      "name": "Object_4",
      "primitives": [
        {
          "attributes": {
            "NORMAL": 13,
            "POSITION": 12
          },
          "indices": 14,
          "material": 0,
          "mode": 4
        }
      ]
    },
    {
      "name": "Object_5",
      "primitives": [
        {
          "attributes": {
            "NORMAL": 16,
            "POSITION": 15
          },
          "indices": 17,
          "material": 0,
          "mode": 4
        }
      ]
    }
  ],
  "nodes": [
    {
      "children": [
        1
      ],
      "matrix": [
        1.0,
        0.0,
        0.0,
        0.0,
        0.0,
        2.220446049250313e-16,
        -1.0,
        0.0,
        0.0,
        1.0,
        2.220446049250313e-16,
        0.0,
        0.0,
        0.0,
        0.0,
        1.0
      ],
      "name": "Sketchfab_model"
    },
    {
      "children": [
        2,
        3,
        4,
        5,
        6,
        7
      ],
      "name": "Diatom - Campylodiscus hibernicus.stl.cleaner.materialmerger.gles"
    },
    {
      "mesh": 0,
      "name": "Object_2"
    },
    {
      "mesh": 1,
      "name": "Object_3"
    },
    {
      "mesh": 2,
      "name": "Object_4"
    },
    {
      "mesh": 3,
      "name": "Object_5"
    },
    {
      "mesh": 4,
      "name": "Object_6"
    },
    {
      "mesh": 5,
      "name": "Object_7"
    }
  ],
  "scene": 0,
  "scenes": [
    {
      "name": "Sketchfab_Scene",
      "nodes": [
        0
      ]
    }
  ]
}
